<svg width="64" height="26" viewBox="0 0 64 26" fill="none" xmlns="http://www.w3.org/2000/svg">
<path d="M64 12.3623C63.9615 12.557 63.9061 12.7348 63.8369 12.9004C63.7771 13.088 63.6746 13.2786 63.5107 13.5088C63.4879 13.5319 63.4652 13.555 63.4424 13.5781C63.1828 13.9247 62.8623 14.2403 62.5244 14.5967C62.3987 14.7341 62.2731 14.8721 62.1436 15.0137C61.7768 15.4116 61.404 15.8031 61.0273 16.1924C60.9146 16.3091 60.8017 16.4266 60.6855 16.5469C60.4143 16.8188 60.1285 17.0772 59.8408 17.333L59.3662 17.333C59.2488 17.6717 59.2487 17.6721 59.1289 18.0176C58.7493 18.3772 58.7494 18.3776 58.2695 18.7588C57.6187 19.2887 56.9976 19.8258 56.4014 20.4121C55.8628 20.9391 55.3119 21.4317 54.7256 21.9092C54.065 22.4517 53.4465 23.021 52.8389 23.6172C52.6907 23.7624 52.5423 23.908 52.3896 24.0576C52.091 24.3521 51.7935 24.6479 51.498 24.9453C51.3602 25.0812 51.2221 25.2174 51.0801 25.3574C50.9569 25.4808 50.8339 25.6043 50.707 25.7314C50.3515 25.9992 50.3512 26 49.6396 26C49.0671 24.3487 49.2168 22.7494 50.0098 21.1963C50.669 20.0496 51.3957 18.9432 52.1504 17.8525C52.5192 17.328 52.519 17.3273 52.7236 16.6484C51.6868 16.1502 50.3003 16.401 49.165 16.4209C48.7659 16.4108 48.7656 16.4107 48.3584 16.4004C46.799 16.4129 45.9394 16.6194 44.7607 17.6328C44.4036 17.9831 44.052 18.3388 43.708 18.7012C43.4018 19.0147 43.0874 19.3224 42.7588 19.6143L42.2852 19.6143L42.2852 20.0703L41.8105 20.0703C41.7551 20.1974 41.6988 20.3241 41.6416 20.4551C41.0439 21.4832 40.0863 22.2594 39.2236 23.085C38.8752 23.4192 38.5296 23.7563 38.1846 24.0937C37.9651 24.3049 37.7456 24.5159 37.5195 24.7334C37.3188 24.927 37.1179 25.1208 36.9111 25.3203C36.3739 25.755 36.0955 25.9431 35.4043 26C34.8709 25.7863 34.8707 25.786 34.4561 25.5439L34.4561 25.0879C34.323 25.0298 34.1898 24.9709 34.0527 24.9111C32.1642 23.9417 30.6421 22.3625 29.1768 20.8896C28.9524 20.6654 28.9525 20.6653 28.7236 20.4365C28.1035 19.8156 27.4842 19.1944 26.874 18.5645C26.4215 18.0989 25.9616 17.6408 25.5 17.1836C25.366 17.0416 25.2318 16.8992 25.0937 16.7529C24.1171 15.8021 23.3528 15.5567 21.9736 15.5088C21.7085 15.5087 21.443 15.5089 21.1699 15.5088C20.8387 15.505 20.507 15.5011 20.1758 15.4971C19.1946 15.4889 18.2137 15.4918 17.2324 15.498C16.5772 15.5021 15.9218 15.505 15.2666 15.5068C13.4057 15.5124 11.5445 15.5201 9.68359 15.5303C8.54081 15.5364 7.39768 15.5404 6.25488 15.543C5.82073 15.5444 5.38629 15.5466 4.95215 15.5498C4.34704 15.5542 3.74184 15.5557 3.13672 15.5566C2.95793 15.5586 2.77893 15.5604 2.59473 15.5625C0.994858 15.5596 0.994616 15.5602 0.291992 15.0527C0.0532078 14.3641 0.0159259 13.8769 0.0107416 13.1562C0.00737958 12.9456 0.00346336 12.7346 -5.47161e-07 12.5176C0.0609714 11.7839 0.277511 11.1836 0.529296 10.4912C0.819522 10.4899 1.11016 10.4887 1.40918 10.4873C4.1392 10.4743 6.86963 10.4576 9.59961 10.4375C11.0031 10.4273 12.407 10.4182 13.8105 10.4121C15.1641 10.4062 16.5176 10.3973 17.8711 10.3857C18.3885 10.3819 18.9064 10.3793 19.4238 10.3779C20.1464 10.3757 20.8692 10.3687 21.5918 10.3613C21.8074 10.3617 22.023 10.362 22.2451 10.3623C22.8985 10.3609 22.8986 10.3609 23.7793 10.2627C23.9358 10.037 24.0927 9.8116 24.2539 9.5791L24.7285 9.5791C24.8209 9.37909 24.8209 9.37874 24.915 9.1748C25.2234 8.63052 25.5561 8.27091 26.0127 7.83496C26.1738 7.68054 26.335 7.52628 26.501 7.36719C26.6694 7.20804 26.8382 7.04873 27.0117 6.88476C27.1747 6.72821 27.3379 6.57145 27.5059 6.41015C30.6415 3.4213 30.6422 3.4209 31.3711 3.4209C31.4494 3.19511 31.5277 2.96896 31.6084 2.73633C32.0205 2.38013 32.4484 2.04054 32.8838 1.71094C33.7878 1.03472 33.7882 1.03459 34.6162 0.278319C34.9304 0.000361882 34.9304 -1.27067e-06 35.5977 -1.24151e-06C36.3287 0.220509 36.803 0.533714 37.3145 0.963866C37.6393 1.20767 37.9421 1.5107 38.2881 1.81933C38.3047 1.83402 38.3219 1.85041 38.3408 1.86719C38.7261 2.28034 38.7266 2.2807 38.7266 2.73633C38.9612 2.81153 39.1957 2.88737 39.4375 2.96484C39.8453 3.36218 39.846 3.36221 40.2686 3.84863C40.3723 3.96736 40.4581 4.06518 40.5322 4.14941C40.6613 4.29431 40.7924 4.43639 40.9238 4.57812C41.0638 4.72403 41.221 4.88196 41.5059 5.16211C41.584 5.24224 41.6424 5.30153 41.6855 5.35351C41.7273 5.39334 41.7672 5.43514 41.8096 5.47461C41.8007 5.49172 41.7921 5.50924 41.7832 5.52637C41.8094 5.61603 41.8105 5.72824 41.8105 5.92969L42.2852 5.92969C42.5671 6.193 42.8481 6.45749 43.1221 6.72851C45.1161 8.67591 47.0903 9.57471 49.9717 9.60156C50.3303 9.60007 50.6893 9.59661 51.0479 9.59277C51.2327 9.59174 51.4179 9.5909 51.6084 9.58984C52.0592 9.58718 52.5101 9.58349 52.9609 9.5791C52.3883 8.01907 51.7338 6.71978 50.6621 5.41699C49.5376 4.03558 49.0501 3.06382 49.2393 1.2832C49.4024 0.456458 49.4024 0.456134 49.6396 -6.27711e-07C50.4299 0.136163 50.8766 0.392773 51.4785 0.898437C51.6239 1.01794 51.7692 1.13762 51.9189 1.26074C52.2489 1.59661 52.249 1.5966 52.249 2.05273C52.4471 2.13032 52.4474 2.12988 52.6494 2.20898C53.3542 2.59354 53.8173 3.09153 54.3848 3.64941C54.7042 3.91726 55.0259 4.18308 55.3486 4.44727C56.0689 5.04524 56.6412 5.66701 57.2314 6.38574C57.4663 6.57389 57.7014 6.7622 57.9434 6.95605C58.6549 7.52607 58.6546 7.52675 59.0947 8.06836C59.6341 8.70295 60.2004 9.17965 60.8643 9.69238C61.2065 9.95874 61.2065 9.95971 61.5557 10.2314C62.0943 10.6311 62.636 10.9927 63.207 11.3467C63.4892 11.5637 63.6514 11.6895 63.7549 11.7998C63.7948 11.819 63.8341 11.8392 63.874 11.8584C63.8788 11.9049 63.8827 11.9498 63.8867 11.9932C63.9293 12.086 63.9584 12.1967 64 12.3623ZM39.9121 12.7715C38.5379 11.2143 37.1064 9.88989 35.4043 8.66699C33.6228 9.85272 32.1635 11.2829 30.6602 12.7715C30.7776 13.1101 30.7767 13.1106 30.8965 13.4561L31.3711 13.4561C31.4248 13.5782 31.4788 13.7003 31.5342 13.8262C32.4165 15.3611 33.721 16.3094 35.167 17.333C35.7232 16.8797 36.2768 16.4237 36.8281 15.9648C37.0305 15.7973 37.2329 15.6296 37.4414 15.457C37.65 15.2812 37.8584 15.1049 38.0732 14.9238C38.2702 14.7589 38.468 14.5947 38.6709 14.4248C39.2044 13.9093 39.5533 13.4087 39.9121 12.7715Z" fill="white"/>
</svg>
